#!OML:ASF Y:\EmotionMaleHayes\Project 1\Capture day 1\Session 1\Male1.ASF
:FULLY-SPECIFIED
:DEGREES
284
root 41.9965 15.5344 -0.200561 -243.603 98.3947 -242.253
lowerback 20.4308 2.12912 3.42733
upperback 4.6244 4.2413 4.83083
thorax -6.52216 2.18651 2.15778
lowerneck -27.9021 2.76721 3.9191
upperneck 22.672 3.67557 -4.75318
head 12.2701 1.33645 -1.77961
rclavicle 3.55825e-014 1.43125e-014
rhumerus -24.3122 17.0117 -84.372
rradius 76.2173
rwrist -4.34192
rhand -31.6255 -24.8505
rfingers 7.12502
rthumb -4.88713 -54.7741
lclavicle 3.55825e-014 1.43125e-014
lhumerus -63.8247 -20.0526 102.552
lradius 72.7512
lwrist 21.3832
lhand -40.7188 -28.3334
lfingers 7.12502
lthumb -13.6606 1.19831
rfemur -14.7591 -0.583538 33.1673
rtibia 50.103
rfoot 689.216 -3.47673
rtoes 10.8872
lfemur -25.9679 10.7243 -7.87009
ltibia 76.5282
lfoot 525.839 -12.2995
ltoes -7.96904
285
root 42.5127 15.6095 -0.224849 -243.394 98.5836 -242.211
lowerback 20.1808 2.45131 3.7513
upperback 4.46321 4.70971 4.79935
thorax -6.54562 2.40257 1.82897
lowerneck -27.9823 2.44133 3.6443
upperneck 23.0561 3.25976 -4.4371
head 12.4026 1.1708 -1.69399
rclavicle -2.44505e-014 -1.59028e-015
rhumerus -22.1762 16.1826 -84.6039
rradius 77.3807
rwrist -3.96163
rhand -30.7388 -24.6887
rfingers 7.12502
rthumb -4.03095 -54.6303
lclavicle -2.44505e-014 -1.59028e-015
lhumerus -66.033 -20.6975 102.862
lradius 72.4464
lwrist 21.5059
lhand -40.6679 -28.6672
lfingers 7.12502
lthumb -13.6115 0.867808
rfemur -11.8433 -0.767695 32.931
rtibia 48.4302
rfoot 688.91 -2.87739
rtoes 11.4991
lfemur -29.8665 10.6253 -8.07917
ltibia 78.2088
lfoot 525.427 -12.8388
ltoes -6.11091
286
root 43.0322 15.6886 -0.251207 -241.83 99.0504 -240.66
lowerback 20.0109 2.88328 4.17033
upperback 4.39205 5.34723 4.79009
thorax -6.50162 2.70266 1.4306
lowerneck -28.0542 2.08545 3.42136
upperneck 23.3593 2.78339 -4.15494
head 12.5039 0.979367 -1.6404
rclavicle -2.60408e-014 2.38542e-015
rhumerus -20.338 16.0255 -84.9488
rradius 78.7717
rwrist -5.4003
rhand -29.6481 -24.6397
rfingers 7.12502
rthumb -2.97764 -54.5986
lclavicle -2.60408e-014 2.38542e-015
lhumerus -68.1963 -21.3444 103.165
lradius 72.3564
lwrist 20.7352
lhand -40.6343 -28.8126
lfingers 7.12502
lthumb -13.5792 0.724599
rfemur -8.73781 -0.691676 32.8445
rtibia 46.6694
rfoot 688.921 -2.85201
rtoes 7.53039
lfemur -33.2454 10.9688 -7.98563
ltibia 81.5454
lfoot 517.138 -41.0058
ltoes -5.08588
287
root 43.5711 15.776 -0.274669 -242.033 99.2462 -240.596
lowerback 19.9641 3.2094 4.44674
upperback 4.37798 5.82861 4.7972
thorax -6.4672 2.93218 1.16687
lowerneck -28.1143 1.72914 3.29049
upperneck 23.6901 2.3229 -4.05189
head 12.6222 0.779712 -1.66874
rclavicle 2.64384e-014 6.2816e-014
rhumerus -18.9493 16.0091 -85.1938
rradius 80.285
rwrist -6.64216
rhand -31.2118 -25.3841
rfingers 7.12502
rthumb -4.48764 -55.3165
lclavicle 2.64384e-014 6.2816e-014
lhumerus -70.3462 -21.8757 103.443
lradius 72.4596
lwrist 19.3982
lhand -40.514 -28.4219
lfingers 7.12502
lthumb -13.4632 1.12296
rfemur -5.15046 -0.968706 32.5556
rtibia 44.7905
rfoot 689.389 -2.89644
rtoes 3.06269
lfemur -35.7604 10.8047 -7.92122
ltibia 86.1731
lfoot 494.115 -67.5824
ltoes -4.52421
288
root 44.1203 15.8629 -0.295512 -242.125 99.6438 -240.306
lowerback 19.9085 3.57059 4.96189
upperback 4.41899 6.39897 4.76724
thorax -6.3321 3.20501 0.71483
lowerneck -28.256 1.29965 3.15709
upperneck 24.0149 1.74499 -3.91731
head 12.7499 0.532417 -1.70737
rclavicle 8.74653e-015 -3.18055e-015
rhumerus -17.8367 15.9312 -85.3965
rradius 81.8537
rwrist -7.86211
rhand -32.4595 -24.8393
rfingers 7.12502
rthumb -5.6924 -54.7428
lclavicle 8.74653e-015 -3.18055e-015
lhumerus -72.4849 -22.6714 103.728
lradius 72.5911
lwrist 18.2061
lhand -40.5809 -28.1021
lfingers 7.12502
lthumb -13.5278 1.43852
rfemur -1.48868 -1.1065 32.4039
rtibia 42.8532
rfoot 690.22 -2.92279
rtoes -2.17817
lfemur -37.6791 10.8023 -7.54801
ltibia 89.0555
lfoot 397.404 -72.6714
ltoes -4.01636
289
root 44.6692 15.9456 -0.339155 -239.318 99.2159 -237.639
lowerback 19.371 4.02142 4.92061
upperback 4.2587 6.88598 4.3311
thorax -6.16071 3.43129 0.192061
lowerneck -27.9554 0.791377 2.65135
upperneck 23.8914 1.00693 -3.12752
head 12.602 0.275315 -1.45193
rclavicle -9.34288e-015 -7.95139e-015
rhumerus -17.1135 15.9983 -85.5838
rradius 83.7357
rwrist -9.29538
rhand -32.985 -25.5453
rfingers 7.12502
rthumb -6.1997 -55.4346
lclavicle -9.34288e-015 -7.95139e-015
lhumerus -74.7827 -23.6242 104.114
lradius 72.7333
lwrist 17.57
lhand -40.7524 -28.7761
lfingers 7.12502
lthumb -13.693 0.753385
rfemur 1.39566 -1.32996 30.832
rtibia 41.0387
rfoot 691.259 -1.36897
rtoes -1.60378
lfemur -39.6952 10.4906 -8.50061
ltibia 88.4351
lfoot 362.889 -47.4665
ltoes -5.11859
290
root 45.2298 16.0497 -0.374265 -239.373 99.1208 -237.447
lowerback 19.4639 4.33828 5.27587
upperback 3.98885 7.35712 4.0565
thorax -6.40907 3.63238 -0.423673
lowerneck -28.0003 0.300796 2.65662
upperneck 24.5513 0.342392 -3.13492
head 12.8513 -0.00961356 -1.58802
rclavicle -1.96797e-014 -1.03368e-014
rhumerus -16.9724 16.0424 -85.713
rradius 85.6605
rwrist -10.0881
rhand -33.0961 -26.0488
rfingers 7.12502
rthumb -6.30696 -55.9349
lclavicle -1.96797e-014 -1.03368e-014
lhumerus -77.3779 -24.4139 104.618
lradius 72.9414
lwrist 17.3895
lhand -40.8564 -30.0397
lfingers 7.12502
lthumb -13.7932 -0.517005
rfemur 4.67664 -1.54374 29.8963
rtibia 39.1559
rfoot 692.613 -0.338256
rtoes -2.08404
lfemur -40.5606 10.0599 -8.6416
ltibia 83.961
lfoot 353.443 -19.0083
ltoes -4.98997
